<?xml version="1.0" encoding="UTF-8" standalone="no"?>
<!-- Created with Inkscape (http://www.inkscape.org/) -->

<svg
   width="210mm"
   height="297mm"
   viewBox="0 0 210 297"
   version="1.1"
   id="svg1"
   xml:space="preserve"
   xmlns="http://www.w3.org/2000/svg"
   xmlns:svg="http://www.w3.org/2000/svg"><defs
     id="defs1" /><g
     id="layer1"><path
       style="fill:#000000"
       d="M -2638.8124,1893.7976 H -4571.642 V -159.87725 -2213.552 h 1932.8296 1932.82962 V -159.87725 1893.7976 Z m 5.3246,-382.9041 79.869,-3.9594 39.125,-11.8806 39.125,-11.8805 50.591,-35.8577 50.591,-35.8578 3.4505,-9.9451 3.4505,-9.9452 h -293.8872 -293.8873 l 43.6499,36.1633 43.6499,36.1634 39.9297,17.871 39.9296,17.8711 37.2722,7.6085 37.2722,7.6084 z m -261.7114,-164.135 85.9996,-0.055 40.5232,-10.509 40.5231,-10.5089 6.1447,-14.954 6.1446,-14.954 -36.0186,-34.9488 -36.0186,-34.9488 -50.3765,-34.7168 -50.3765,-34.7167 -10.8346,-37.5766 -10.8347,-37.5766 9.232,-46.1493 9.232,-46.14924 14.4622,-16.2739 14.4623,-16.2739 74.7891,7.9126 74.7891,7.9125 63.8952,0.1153 63.8952,0.1153 70.6999,-8.1097 70.6999,-8.1097 19.2328,27.4123 19.2328,27.41244 4.5259,58.4329 4.5259,58.4329 -41.507,37.3179 -41.507,37.3179 -50.2893,37.7894 -50.2893,37.7893 v 18.1776 18.1776 l 17.4684,13.539 17.4683,13.539 113.9038,3.6409 113.9038,3.6409 55.5165,-80.8236 55.5166,-80.8237 36.7444,-71.6039 36.7445,-71.6038 v -66.12934 -66.1293 l -16.7825,-142.3872 -16.7825,-142.3872 6.3374,-31.5477 6.3373,-31.5477 130.2487,-57.156 130.2486,-57.156 143.7642,-57.2184 143.7642,-57.2184 55.5618,-16.9909 55.5619,-16.9908 28.8105,3.1781 28.8104,3.1781 4.0605,11.5615 4.0605,11.5615 -99.082,74.0368 -99.082,74.0368 -64.6873,63.579 -64.6874,63.5791 -28.9906,46.4197 -28.9906,46.4197 -19.455,53.0318 -19.4549,53.0319 -7.1946,29.8355 -7.1946,29.8354 43.2135,-61.0979 43.2135,-61.098 71.1772,-62.1808 71.1773,-62.1809 78.5352,-47.8789 78.5352,-47.8788 135.0609,-63.4865 135.0609,-63.4865 67.9209,-23.1323 67.9208,-23.1324 -15.0837,-10.7427 -15.0838,-10.7427 -87.6732,-62.765 -87.6733,-62.7651 5.8993,-8.9141 5.8992,-8.9141 63.8357,-16.7272 63.8357,-16.7272 5.9465,-8.9854 5.9464,-8.9855 -87.8043,-126.3742085 -87.8042,-126.3743015 -7.2961,-7.904 -7.2961,-7.904 -323.7915,221.945412 -323.7914,221.945398 -148.4488,104.2036 -148.4489,104.2036 -34.393,33.0234 -34.3929,33.0234 -17.3164,34.0791 -17.3164,34.079 -21.7544,87.0475 -21.7544,87.0475 -11.0556,27.4757 -11.0555,27.4757 -27.9372,7.0964 -27.9372,7.0964 -165.0626,-0.1777 -165.0626,-0.1776 -31.4586,-14.5041 -31.4585,-14.5042 -27.4739,-104.4241 -27.4739,-104.4242 -26.0326,-48.2607 -26.0326,-48.2607 -74.7983,-56.1634 -74.7983,-56.1634 -237.9243,-164.0951 -237.9244,-164.0951 -176.3895,-121.8282085 -176.3895,-121.8281015 h -14.246 -14.246 l -91.6872,128.5382015 -91.6872,128.5383085 6.3256,9.5585 6.3256,9.5584 69.3428,17.5293 69.3427,17.5292 v 7.2658 7.2658 l -100.0644,72.7815 -100.0645,72.7814 97.6776,35.8798 97.6775,35.8797 103.6393,50.9536 103.6392,50.9536 77.1217,47.8695 77.1218,47.8694 76.5885,67.9268 76.5885,67.9268 33.9357,49.388 33.9358,49.388 4.1088,-3.8372 4.1087,-3.8371 -21.9846,-66.4721 -21.9845,-66.4721 -38.5035,-61.8422 -38.5035,-61.8423 -70.1188,-64.6525 -70.1187,-64.6525 -87.8559,-63.3908 -87.8559,-63.3909 v -7.6385 -7.6385 l 16.8448,-6.0366 16.8448,-6.0366 h 25.0255 25.0256 l 83.2577,28.6719 83.2578,28.6719 138.4396,57.1196 138.4396,57.1197 103.8296,48.5587 103.8297,48.5588 0.1766,42.1762 0.1765,42.1762 -17.7427,167.0079 -17.7428,167.0078 12.7171,53.06904 12.7171,53.0691 64.7825,103.1407 64.7825,103.1407 21.7919,22.3766 21.7919,22.3766 z m -102.4817,-1124.90984 77.7486,1.1626 -28.0755,-34.3754 -28.0756,-34.3754 -70.9715,-54.058 -70.9715,-54.058098 -53.5106,-29.33011 -53.5106,-29.3301 -70.7714,-26.4412 -70.7715,-26.4412 h -26.0941 -26.0942 l 8.8919,44.4493 8.8919,44.4493 20.5858,37.59831 20.5857,37.5982 27.7833,27.927198 27.7832,27.9273 56.2975,24.0699 56.2975,24.0698 58.1162,8.9975 58.1162,8.9975 z m 720.9412,-1.654 117.1412,-6.0316 53.246,-17.0985 53.246,-17.0986 40.4669,-23.6692 40.4669,-23.6691 30.956,-45.585498 30.9561,-45.5855 12.8176,-53.48871 12.8177,-53.4887 -6.7786,-6.3304 -6.7786,-6.3305 -78.806,26.842 -78.8061,26.842 -78.5249,43.7113 -78.525,43.71121 -62.8337,47.721498 -62.8337,47.7214 -27.6845,33.9293 -27.6844,33.9292 z m -593.8928,-131.515298 2.4622,-1.2116 -21.0493,-133.61761 -21.0493,-133.617702 -0.049,-5.7651 -0.049,-5.7651 -190.8956,-141.4854 -190.8957,-141.4854 -4.6244,-255.5283 -4.6244,-255.52836 -13.0017,-47.23949 -13.0018,-47.2395 h -9.0349 -9.035 l -173.8013,125.77699 -173.8013,125.7769 -5.8453,8.3199 -5.8454,8.3199 7.7649,72.26506 7.7649,72.2652 16.7868,139.2322 16.7869,139.2322 5.8812,42.1076 5.8812,42.1076 65.9306,33.662 65.9306,33.662 202.3348,97.2859 202.3347,97.285902 117.1412,66.1979 117.1412,66.19791 z m 540.8646,-59.493 111.7851,-62.10041 279.7039,-135.323102 279.704,-135.323 24.0193,-196.6778 24.0194,-196.6777 6.3162,-60.2708 6.3163,-60.27086 -158.3816,-114.6508 -158.3816,-114.65079 -28.2992,-17.063 -28.2992,-17.063 -5.1642,7.9992 -5.1641,7.9993 -18.5291,84.53379 -18.529,84.5338 5.4436,198.90316 5.4437,198.9031 -5.1382,13.036 -5.1382,13.0361 -182.5954,135.398 -182.5954,135.398 -1.9929,0.9469 -1.9929,0.9469 -22.0877,124.110802 -22.0876,124.11091 -5.0801,21.1578 -5.0801,21.1578 z m -1361.7654,-127.91081 1.5499,-1.481902 -20.2239,-144.2047 -20.2238,-144.2048 -16.2083,-128.162 -16.2083,-128.162 -5.7747,-8.726 -5.7748,-8.726 -41.5693,-19.8051 -41.5693,-19.805 -15.1508,27.406 -15.1508,27.406 -76.5965,176.4235 -76.5966,176.4235 3.8059,10.663 3.806,10.6629 170.1677,87.8872 170.1678,87.887202 z m 2168.3485,-45.960302 98.3811,-50.7792 77.2066,-36.5996 77.2067,-36.5995 0.092,-15.2232 0.092,-15.2232 -81.5982,-188.958 -81.5982,-188.9579 -11.7642,-12.16 -11.7642,-12.1599 -43.6746,24.3225 -43.6745,24.3226 -7.4045,76.3092 -7.4045,76.3092 -25.8727,175.0748 -25.8726,175.0749 -5.366,28.0132 -5.366,28.013302 z m -1132.7467,-30.2799 14.8284,0.1697 160.8833,-111.1244 160.8833,-111.1244 103.8297,-70.2589 103.8297,-70.2589 v -108.0901 -108.0901 l -98.5403,-96.78406 -98.5403,-96.784 -28.6405,-49.143 -28.6405,-49.14309 -11.1783,-64.3436 -11.1784,-64.3436 -0.08,-66.0658 -0.08,-66.0658 -16.1066,-5.7721 -16.1067,-5.7721 -117.8536,-11.0031 -117.8536,-11.0031 -113.6337,11.1536 -113.6336,11.1536 -18.6361,5.2278 -18.6361,5.2277 -0.2528,101.2677 -0.2527,101.2676 -25.5495,58.0303 -25.5494,58.03029 -30.1061,40.5868 -30.1061,40.5868 -75.506,71.2144 -75.5061,71.21438 -6.8455,68.85228 -6.8455,68.8523 6.3632,50.1224 6.3632,50.1224 38.7162,23.6747 38.7161,23.6748 165.0626,114.2478 165.0626,114.2478 53.246,38.0376 53.246,38.0377 z m -1162.8418,-646.26546 h 5.146 l 40.051,-26.8858 40.0509,-26.8859 6.4586,-160.44499 6.4585,-160.4449 17.0369,-108.5376 17.0369,-108.5376 15.4598,-64.6435 15.4599,-64.6435 28.2035,-87.0202 28.2035,-87.0201 h 12.7505 12.7505 l 52.4649,52.2121 52.465,52.2121 48.8064,59.6709 48.8063,59.6709 55.0643,89.5065 55.0643,89.5064 15.2577,49.7257 15.2576,49.7258 11.6005,129.0304 11.6004,129.03029 2.0746,1.9375 2.0746,1.9374 65.0682,-41.4614 65.0682,-41.46139 36.0743,-26.1374 36.0743,-26.1375 v -84.1734 -84.1733 l -38.9294,-43.8391 -38.9294,-43.8391 -246.2589,-231.2249 -246.2589,-231.2249 h -20.7387 -20.7387 l -47.6744,91.9927 -47.6743,91.9927 -32.6755,94.479 -32.6755,94.479 -21.8176,99.4515 -21.8177,99.4516 -9.7132,109.3967 -9.7133,109.3968 -0.1733,81.23409 -0.1733,81.2342 6.464,15.7311 6.4639,15.7311 z m 2332.7367,-0.3734 13.3115,0.3734 v -127.1787 -127.17879 l -15.2411,-114.738 -15.241,-114.7381 -21.9622,-83.7871 -21.9621,-83.787 -37.6298,-99.4516 -37.6297,-99.4516 -40.0257,-68.9055 -40.0257,-68.9055 -13.2396,-4.1215 -13.2397,-4.1214 -260.0239,245.7597 -260.0239,245.7597 -29.0287,39.119 -29.0286,39.1191 -4.7123,53.0666 -4.7122,53.0667 12.1748,34.4512 12.1749,34.4512 94.6042,61.1232 94.6043,61.12319 5.7404,-37.2752 5.7404,-37.27529 6.6666,-79.5613 6.6666,-79.5612 15.6717,-65.7728 15.6717,-65.7728 69.5306,-108.1122 69.5305,-108.1122 56.8871,-64.7988 56.887,-64.7987 31.9319,-28.4356 31.932,-28.4356 9.9684,5.7535 9.9684,5.7535 22.4265,57.4902 22.4265,57.4901 27.1987,105.4723 27.1987,105.4723 15.7021,138.184 15.7021,138.184 0.1136,109.39679 0.1135,109.3967 39.935,31.9483 39.935,31.9484 z"
       id="path2" /></g></svg>
